<svg width="176" height="64" viewBox="0 0 176 64" fill="none" xmlns="http://www.w3.org/2000/svg">
<g clip-path="url(#clip0_6_3570)">
<path d="M116.765 54.5369L109.242 43.2187L108.192 41.6384L106.749 42.5405C101.066 46.2386 98.2656 47.3199 94.384 47.3199C91.68 47.3199 89.152 46.5969 86.7136 45.1541C81.9296 42.2686 78.6816 37.035 78.6816 31.6223C78.6816 28.7367 79.4048 26.0304 80.848 23.5927C83.6448 18.7206 88.9664 15.8351 94.3808 15.8351C97.8112 15.8351 100.88 16.8268 103.494 18.7206C103.917 18.9733 104.416 19.3124 104.992 19.8659C105.085 19.274 105.203 18.6886 105.357 18.1128C105.507 17.5402 105.693 16.9771 105.901 16.4237C105.696 16.3469 105.542 16.2574 105.389 16.107C102.051 13.8517 98.352 12.6776 94.3776 12.6776C90.8576 12.6776 87.7024 13.4902 84.9056 15.1121C79.2224 18.4487 75.4336 25.0355 75.4336 31.6191C75.4336 34.7765 76.336 37.9339 78.048 40.909C81.568 46.952 87.9744 50.6501 94.3808 50.6501C98.2208 50.6501 101.398 49.6104 105.782 47.0064C106.243 46.7345 106.71 46.4497 107.2 46.1394L112.253 53.6283C110.339 54.8856 108.55 55.922 106.822 56.773C102.595 58.8492 98.7392 59.7641 94.384 59.7641C89.3312 59.7641 84.64 58.5005 80.3072 55.9764C71.5552 50.9252 66.1408 41.7248 66.1408 31.6191C66.1408 26.5678 67.408 21.8748 69.9328 17.457C74.9856 8.79723 84.2784 3.38449 94.384 3.38449C100.566 3.38449 106.474 5.35508 111.29 8.99557C111.61 8.73965 111.939 8.49332 112.278 8.2566C112.88 7.83752 113.517 7.45364 114.179 7.09855C108.621 2.72869 101.658 0.227051 94.3872 0.227051C88.704 0.227051 83.4688 1.58023 78.6848 4.37618C76.2752 5.76456 74.0768 7.47284 72.1376 9.43064C66.3808 15.2401 62.896 23.2536 62.896 31.6191C62.896 33.3753 63.0432 35.1028 63.3376 36.7983C63.9648 40.4228 65.2576 43.9065 67.2256 47.2239C72.9088 56.9681 83.1072 63.1007 94.3872 63.1007C100.861 63.1007 106.371 61.2324 113.341 56.773C114.048 56.3219 114.765 55.8517 115.504 55.343L116.765 54.5369Z" fill="#00E5B0"/>
<path d="M72.1344 9.43718L73.3984 5.50238H62.2944L52.2944 39.9783L41.4656 5.35522H32.3616L21.5296 39.9783L11.5296 5.50238H0.147217L16.6304 56.7795H25.872L36.768 23.4649L47.664 56.7795H56.9056L63.328 36.8048C63.0336 35.1061 62.8864 33.3787 62.8864 31.6256C62.8928 23.2602 66.3744 15.2466 72.1344 9.43718Z" fill="white"/>
<path d="M145.971 38.7434H157.872V18.532L145.971 36.2162V38.7434ZM155.379 27.3069V36.229H149.878L155.379 27.3069Z" fill="white"/>
<path d="M170.899 34.1721V5.35526H155.379L141.565 26.7183C141.574 26.6927 141.587 26.6639 141.6 26.6384C142.406 24.6454 142.819 22.5628 142.819 20.445C142.819 18.0234 142.429 15.7969 141.597 13.8103C140.768 11.8237 139.485 10.093 137.811 8.70783C136.144 7.32265 134.138 6.30216 131.869 5.64317C129.6 4.98417 127.066 4.67066 124.272 4.67066C120.688 4.66747 117.344 5.43843 114.368 6.99635C114.304 7.02834 114.246 7.06673 114.182 7.10192C113.52 7.45701 112.883 7.8409 112.282 8.25997C111.942 8.4967 111.613 8.74302 111.293 8.99894C110.973 9.25806 110.659 9.52358 110.358 9.80509C109.923 10.2082 109.52 10.6368 109.133 11.0815C108.464 11.8429 107.853 12.6586 107.322 13.5352C107.312 13.5512 107.302 13.5703 107.293 13.5863C106.739 14.5013 106.282 15.4514 105.91 16.4303C105.699 16.9837 105.517 17.5467 105.366 18.1194C105.213 18.6952 105.094 19.2806 105.002 19.8724C104.861 20.7745 104.784 21.6895 104.784 22.6236V24.6838H120.339V22.6236C120.339 21.7311 120.451 20.9569 120.656 20.2851C120.861 19.6133 121.152 19.0439 121.536 18.532C121.914 18.033 122.282 17.7355 122.656 17.5435C123.034 17.3548 123.443 17.2492 124.003 17.246C124.653 17.246 125.136 17.3452 125.494 17.4891C125.856 17.6363 126.109 17.8186 126.355 18.1002C126.595 18.3817 126.81 18.756 126.973 19.303C127.133 19.8468 127.235 20.5538 127.232 21.4239C127.232 21.795 127.158 22.2717 126.97 22.8507C126.688 23.7176 126.144 24.7989 125.312 26.0433C124.486 27.2814 123.379 28.6761 121.994 30.2085L109.242 43.2253L116.765 54.5434L115.501 55.356C114.762 55.8614 114.045 56.3317 113.338 56.786H144.022V54.7258V46.7474H155.382V56.786H156.41H166.358V44.4345V42.6527H171.408V38.1164H166.358V36.3538V10.0226H157.981L141.549 35.2213V42.32H159.805V52.3489H161.994V14.143H160.829L159.834 15.6209V40.6341V40.6469H144.013V35.6532L159.77 12.2428H163.952V54.2555H157.843V44.2266H144.022V44.2106H139.584V34.6711L156.899 8.11921H168.314V36.3538H173.219V43.4812V44.4313H168.314V56.7764H170.899V46.7378H175.85V34.1689H170.899V34.1721ZM130.573 40.6245C132.24 39.0026 133.686 37.5374 134.915 36.2258C135.59 35.5028 136.195 34.8279 136.742 34.1945L136.739 44.2106H127.373L130.573 40.6245Z" fill="white"/>
<path d="M94.3839 6.18701C87.6191 6.18701 81.3919 8.80382 76.4255 13.5832C71.6447 18.6344 68.9375 24.8597 68.9375 31.6256C68.9375 38.3916 71.6447 44.796 76.4255 49.5786C81.2095 54.3579 87.6159 57.0643 94.3839 57.0643C98.4127 57.0643 102.195 56.1366 105.785 54.2843C106.537 53.8972 107.28 53.4718 108.013 53.0047L106.208 50.2983C106.067 50.3911 105.926 50.4775 105.785 50.5671C102.211 52.816 98.4671 53.9068 94.3839 53.9068C88.5215 53.9068 82.9247 51.562 78.6815 47.3201C74.4415 43.0813 72.1855 37.4863 72.1855 31.6224C72.1855 25.7586 74.4415 20.2563 78.6815 16.0144C82.9215 11.6829 88.5183 9.42762 94.3839 9.42762C98.8063 9.42762 103.046 10.7808 107.29 13.5768C107.299 13.5608 107.309 13.5416 107.318 13.5256C107.849 12.649 108.461 11.8333 109.13 11.0719C109.117 11.0655 109.107 11.0591 109.097 11.0495C104.851 7.80892 99.8879 6.18701 94.3839 6.18701Z" fill="#00E5B0"/>
</g>
<defs>
<clipPath id="clip0_6_3570">
<rect width="176" height="63.3407" fill="white"/>
</clipPath>
</defs>
</svg>
